<svg width="722" height="458" viewBox="0 0 722 458" fill="none" xmlns="http://www.w3.org/2000/svg">
<g id="nubank" clip-path="url(#clip0_203_37)">
<g id="Rectangle 968" filter="url(#filter0_i_203_37)">
<rect width="722" height="458" rx="25" fill="url(#paint0_linear_203_37)"/>
</g>
<path id="Leonardo k h rocha" d="M223.16 363V345.48H226.568V363H223.16ZM226.088 363V360H233.648V363H226.088ZM238.826 363V345.48H242.162V363H238.826ZM241.682 363V360.12H249.626V363H241.682ZM241.682 355.536V352.656H249.002V355.536H241.682ZM241.682 348.36V345.48H249.434V348.36H241.682ZM263.59 363.456C262.006 363.456 260.63 363.176 259.462 362.616C258.31 362.056 257.35 361.328 256.582 360.432C255.83 359.52 255.262 358.544 254.878 357.504C254.51 356.448 254.326 355.432 254.326 354.456V353.928C254.326 352.856 254.518 351.792 254.902 350.736C255.286 349.664 255.862 348.696 256.63 347.832C257.414 346.968 258.382 346.28 259.534 345.768C260.686 345.24 262.038 344.976 263.59 344.976C265.126 344.976 266.47 345.24 267.622 345.768C268.774 346.28 269.734 346.968 270.502 347.832C271.286 348.696 271.87 349.664 272.254 350.736C272.638 351.792 272.83 352.856 272.83 353.928V354.456C272.83 355.432 272.638 356.448 272.254 357.504C271.886 358.544 271.318 359.52 270.55 360.432C269.798 361.328 268.838 362.056 267.67 362.616C266.518 363.176 265.158 363.456 263.59 363.456ZM263.59 360.288C264.486 360.288 265.286 360.128 265.99 359.808C266.71 359.488 267.318 359.048 267.814 358.488C268.326 357.912 268.71 357.264 268.966 356.544C269.238 355.808 269.374 355.032 269.374 354.216C269.374 353.336 269.238 352.528 268.966 351.792C268.71 351.056 268.326 350.416 267.814 349.872C267.318 349.328 266.71 348.904 265.99 348.6C265.27 348.296 264.47 348.144 263.59 348.144C262.694 348.144 261.886 348.296 261.166 348.6C260.446 348.904 259.83 349.328 259.318 349.872C258.822 350.416 258.438 351.056 258.166 351.792C257.91 352.528 257.782 353.336 257.782 354.216C257.782 355.032 257.91 355.808 258.166 356.544C258.438 357.264 258.822 357.912 259.318 358.488C259.83 359.048 260.446 359.488 261.166 359.808C261.886 360.128 262.694 360.288 263.59 360.288ZM278.524 363V345.48H284.116L291.484 360.168H292.276L291.796 360.6V345.48H295.012V363H289.396L282.028 348.312H281.212L281.692 347.88V363H278.524ZM300.009 363L305.985 345.48H311.553L317.697 363H314.193L308.985 347.808L310.209 348.336H307.209L308.457 347.808L303.417 363H300.009ZM304.185 358.344L305.265 355.464H312.369L313.425 358.344H304.185ZM322.699 363V345.36H326.107V363H322.699ZM333.403 363L328.027 355.368H331.843L337.387 363H333.403ZM325.099 357.144V354.384H329.563C330.187 354.384 330.723 354.256 331.171 354C331.635 353.744 331.995 353.384 332.251 352.92C332.507 352.456 332.635 351.928 332.635 351.336C332.635 350.728 332.507 350.192 332.251 349.728C331.995 349.264 331.635 348.904 331.171 348.648C330.723 348.392 330.187 348.264 329.563 348.264H325.099V345.36H329.203C330.611 345.36 331.827 345.568 332.851 345.984C333.891 346.4 334.691 347.032 335.251 347.88C335.811 348.728 336.091 349.792 336.091 351.072V351.456C336.091 352.752 335.803 353.816 335.227 354.648C334.667 355.48 333.875 356.104 332.851 356.52C331.827 356.936 330.611 357.144 329.203 357.144H325.099ZM345.301 363.096V359.928H348.925C349.837 359.928 350.645 359.792 351.349 359.52C352.069 359.232 352.677 358.832 353.173 358.32C353.669 357.808 354.045 357.208 354.301 356.52C354.573 355.816 354.709 355.04 354.709 354.192C354.709 353.312 354.573 352.528 354.301 351.84C354.045 351.136 353.669 350.536 353.173 350.04C352.677 349.544 352.069 349.168 351.349 348.912C350.645 348.656 349.837 348.528 348.925 348.528H345.301V345.36H348.709C350.293 345.36 351.677 345.592 352.861 346.056C354.045 346.52 355.029 347.16 355.813 347.976C356.597 348.776 357.181 349.696 357.565 350.736C357.965 351.76 358.165 352.824 358.165 353.928V354.456C358.165 355.512 357.965 356.552 357.565 357.576C357.181 358.6 356.597 359.528 355.813 360.36C355.029 361.192 354.045 361.856 352.861 362.352C351.677 362.848 350.293 363.096 348.709 363.096H345.301ZM342.373 363.096V345.36H345.781V363.096H342.373ZM371.848 363.456C370.264 363.456 368.888 363.176 367.72 362.616C366.568 362.056 365.608 361.328 364.84 360.432C364.088 359.52 363.52 358.544 363.136 357.504C362.768 356.448 362.584 355.432 362.584 354.456V353.928C362.584 352.856 362.776 351.792 363.16 350.736C363.544 349.664 364.12 348.696 364.888 347.832C365.672 346.968 366.64 346.28 367.792 345.768C368.944 345.24 370.296 344.976 371.848 344.976C373.384 344.976 374.728 345.24 375.88 345.768C377.032 346.28 377.992 346.968 378.76 347.832C379.544 348.696 380.128 349.664 380.512 350.736C380.896 351.792 381.088 352.856 381.088 353.928V354.456C381.088 355.432 380.896 356.448 380.512 357.504C380.144 358.544 379.576 359.52 378.808 360.432C378.056 361.328 377.096 362.056 375.928 362.616C374.776 363.176 373.416 363.456 371.848 363.456ZM371.848 360.288C372.744 360.288 373.544 360.128 374.248 359.808C374.968 359.488 375.576 359.048 376.072 358.488C376.584 357.912 376.968 357.264 377.224 356.544C377.496 355.808 377.632 355.032 377.632 354.216C377.632 353.336 377.496 352.528 377.224 351.792C376.968 351.056 376.584 350.416 376.072 349.872C375.576 349.328 374.968 348.904 374.248 348.6C373.528 348.296 372.728 348.144 371.848 348.144C370.952 348.144 370.144 348.296 369.424 348.6C368.704 348.904 368.088 349.328 367.576 349.872C367.08 350.416 366.696 351.056 366.424 351.792C366.168 352.528 366.04 353.336 366.04 354.216C366.04 355.032 366.168 355.808 366.424 356.544C366.696 357.264 367.08 357.912 367.576 358.488C368.088 359.048 368.704 359.488 369.424 359.808C370.144 360.128 370.952 360.288 371.848 360.288ZM405.714 363L399.306 354.816H396.834L404.442 345.48H408.354L401.49 353.88L401.394 352.2L409.866 363H405.714ZM394.362 363V345.48H397.77V363H394.362ZM433.298 363V345.48H436.706V363H433.298ZM421.802 363V345.48H425.21V363H421.802ZM424.586 355.728V352.728H433.922V355.728H424.586ZM451.001 363V345.36H454.409V363H451.001ZM461.705 363L456.329 355.368H460.145L465.689 363H461.705ZM453.401 357.144V354.384H457.865C458.489 354.384 459.025 354.256 459.473 354C459.937 353.744 460.297 353.384 460.553 352.92C460.809 352.456 460.937 351.928 460.937 351.336C460.937 350.728 460.809 350.192 460.553 349.728C460.297 349.264 459.937 348.904 459.473 348.648C459.025 348.392 458.489 348.264 457.865 348.264H453.401V345.36H457.505C458.913 345.36 460.129 345.568 461.153 345.984C462.193 346.4 462.993 347.032 463.553 347.88C464.113 348.728 464.393 349.792 464.393 351.072V351.456C464.393 352.752 464.105 353.816 463.529 354.648C462.969 355.48 462.177 356.104 461.153 356.52C460.129 356.936 458.913 357.144 457.505 357.144H453.401ZM478.672 363.456C477.088 363.456 475.712 363.176 474.544 362.616C473.392 362.056 472.432 361.328 471.664 360.432C470.912 359.52 470.344 358.544 469.96 357.504C469.592 356.448 469.408 355.432 469.408 354.456V353.928C469.408 352.856 469.6 351.792 469.984 350.736C470.368 349.664 470.944 348.696 471.712 347.832C472.496 346.968 473.464 346.28 474.616 345.768C475.768 345.24 477.12 344.976 478.672 344.976C480.208 344.976 481.552 345.24 482.704 345.768C483.856 346.28 484.816 346.968 485.584 347.832C486.368 348.696 486.952 349.664 487.336 350.736C487.72 351.792 487.912 352.856 487.912 353.928V354.456C487.912 355.432 487.72 356.448 487.336 357.504C486.968 358.544 486.4 359.52 485.632 360.432C484.88 361.328 483.92 362.056 482.752 362.616C481.6 363.176 480.24 363.456 478.672 363.456ZM478.672 360.288C479.568 360.288 480.368 360.128 481.072 359.808C481.792 359.488 482.4 359.048 482.896 358.488C483.408 357.912 483.792 357.264 484.048 356.544C484.32 355.808 484.456 355.032 484.456 354.216C484.456 353.336 484.32 352.528 484.048 351.792C483.792 351.056 483.408 350.416 482.896 349.872C482.4 349.328 481.792 348.904 481.072 348.6C480.352 348.296 479.552 348.144 478.672 348.144C477.776 348.144 476.968 348.296 476.248 348.6C475.528 348.904 474.912 349.328 474.4 349.872C473.904 350.416 473.52 351.056 473.248 351.792C472.992 352.528 472.864 353.336 472.864 354.216C472.864 355.032 472.992 355.808 473.248 356.544C473.52 357.264 473.904 357.912 474.4 358.488C474.912 359.048 475.528 359.488 476.248 359.808C476.968 360.128 477.776 360.288 478.672 360.288ZM501.501 363.456C499.917 363.456 498.557 363.176 497.421 362.616C496.285 362.056 495.357 361.328 494.637 360.432C493.933 359.536 493.413 358.56 493.077 357.504C492.741 356.448 492.573 355.432 492.573 354.456V353.928C492.573 352.84 492.741 351.768 493.077 350.712C493.429 349.656 493.965 348.696 494.685 347.832C495.405 346.968 496.317 346.28 497.421 345.768C498.541 345.24 499.861 344.976 501.381 344.976C502.965 344.976 504.341 345.264 505.509 345.84C506.693 346.4 507.637 347.2 508.341 348.24C509.045 349.264 509.469 350.464 509.613 351.84H506.181C506.053 351.04 505.765 350.368 505.317 349.824C504.885 349.264 504.333 348.848 503.661 348.576C502.989 348.288 502.229 348.144 501.381 348.144C500.517 348.144 499.749 348.296 499.077 348.6C498.405 348.888 497.845 349.304 497.397 349.848C496.949 350.392 496.605 351.032 496.365 351.768C496.141 352.504 496.029 353.32 496.029 354.216C496.029 355.08 496.141 355.88 496.365 356.616C496.605 357.352 496.957 358 497.421 358.56C497.885 359.104 498.453 359.528 499.125 359.832C499.813 360.136 500.605 360.288 501.501 360.288C502.813 360.288 503.917 359.968 504.813 359.328C505.725 358.672 506.277 357.76 506.469 356.592H509.901C509.741 357.84 509.317 358.984 508.629 360.024C507.941 361.064 506.997 361.896 505.797 362.52C504.597 363.144 503.165 363.456 501.501 363.456ZM526.673 363V345.48H530.081V363H526.673ZM515.177 363V345.48H518.585V363H515.177ZM517.961 355.728V352.728H527.297V355.728H517.961ZM535.068 363L541.044 345.48H546.612L552.756 363H549.252L544.044 347.808L545.268 348.336H542.268L543.516 347.808L538.476 363H535.068ZM539.244 358.344L540.324 355.464H547.428L548.484 358.344H539.244Z" fill="#FEFBFF"/>
<path id="Union" fill-rule="evenodd" clip-rule="evenodd" d="M94.6653 319.851C94.6653 319.852 94.6657 319.826 94.6765 319.771C94.687 319.717 94.7053 319.646 94.7346 319.559C94.7934 319.385 94.89 319.165 95.0334 318.917C95.3199 318.421 95.7758 317.84 96.4341 317.301C97.733 316.235 99.8635 315.292 103.14 315.533C116.1 316.484 123.415 325.41 123.415 332.161V372.167C123.415 372.805 123.268 373.099 123.132 373.241C123.004 373.375 122.718 373.545 122.028 373.545H114.306C113.616 373.545 113.33 373.375 113.202 373.241C113.066 373.099 112.919 372.805 112.919 372.167V335.238C112.919 332.828 111.734 330.421 109.988 328.634C108.238 326.842 105.817 325.565 103.213 325.565H94.6653V319.851ZM103.213 327.565H94.6653V372.167C94.6653 373.162 94.4816 374.108 93.7928 374.763C93.1155 375.407 92.1812 375.545 91.2783 375.545H83.4153C82.6083 375.545 81.7232 375.389 81.0381 374.792C80.3256 374.171 80.0283 373.251 80.0283 372.167V334.819C80.0283 332.956 81.0921 330.668 82.6635 328.878C84.2481 327.074 86.5353 325.565 89.1713 325.565H92.6653V319.851C92.6653 319.284 92.917 318.582 93.3015 317.916C93.7055 317.217 94.3169 316.45 95.1658 315.754C96.8815 314.347 99.5249 313.262 103.286 313.538C117.005 314.545 125.415 324.098 125.415 332.161V372.167C125.415 373.069 125.211 373.963 124.575 374.626C123.931 375.297 123.024 375.545 122.028 375.545H114.306C113.31 375.545 112.403 375.297 111.759 374.626C111.123 373.963 110.919 373.069 110.919 372.167V335.238C110.919 333.463 110.026 331.534 108.558 330.031C107.093 328.532 105.161 327.565 103.213 327.565ZM89.1713 327.565H92.6653V372.167C92.6653 372.991 92.4979 373.234 92.4145 373.314C92.3195 373.404 92.0603 373.545 91.2783 373.545H83.4153C82.8182 373.545 82.5097 373.422 82.3524 373.285C82.2225 373.171 82.0283 372.902 82.0283 372.167V334.819C82.0283 333.604 82.7895 331.766 84.1663 330.198C85.5298 328.645 87.3141 327.565 89.1713 327.565ZM164.111 381.128C164.111 381.128 164.111 381.153 164.1 381.209C164.089 381.262 164.071 381.333 164.042 381.42C163.983 381.595 163.886 381.814 163.743 382.063C163.456 382.559 163.001 383.139 162.342 383.679C161.043 384.744 158.913 385.687 155.636 385.447C142.676 384.495 135.361 375.569 135.361 368.819V328.812C135.361 328.175 135.508 327.88 135.644 327.738C135.772 327.605 136.058 327.434 136.748 327.434H144.471C145.16 327.434 145.446 327.605 145.575 327.738C145.71 327.88 145.858 328.175 145.858 328.812V365.741C145.858 368.151 147.042 370.559 148.788 372.346C150.539 374.137 152.96 375.414 155.563 375.414H164.111V381.128ZM155.563 373.414H164.111V328.812C164.111 327.817 164.295 326.871 164.984 326.216C165.661 325.572 166.595 325.434 167.498 325.434H175.361C176.168 325.434 177.053 325.59 177.738 326.187C178.451 326.808 178.748 327.728 178.748 328.812V366.161C178.748 368.023 177.684 370.312 176.113 372.101C174.528 373.906 172.241 375.414 169.605 375.414H166.111V381.128C166.111 381.695 165.859 382.397 165.475 383.063C165.071 383.762 164.459 384.529 163.61 385.225C161.895 386.632 159.251 387.717 155.49 387.441C141.772 386.434 133.361 376.882 133.361 368.819V328.812C133.361 327.91 133.565 327.016 134.201 326.353C134.845 325.683 135.753 325.434 136.748 325.434H144.471C145.466 325.434 146.373 325.683 147.017 326.353C147.654 327.016 147.858 327.91 147.858 328.812V365.741C147.858 367.516 148.75 369.445 150.219 370.948C151.683 372.447 153.615 373.414 155.563 373.414ZM169.605 373.414H166.111V328.812C166.111 327.988 166.278 327.745 166.362 327.666C166.457 327.575 166.716 327.434 167.498 327.434H175.361C175.958 327.434 176.267 327.558 176.424 327.695C176.554 327.808 176.748 328.077 176.748 328.812V366.161C176.748 367.376 175.987 369.214 174.61 370.781C173.246 372.334 171.462 373.414 169.605 373.414Z" fill="#FEFBFF"/>
<circle id="Ellipse 10" cx="581.889" cy="86.497" r="45.7505" fill="#E71924"/>
<circle id="Ellipse 11" cx="637.647" cy="86.497" r="45.7505" fill="#F99F19"/>
<path id="Intersect" fill-rule="evenodd" clip-rule="evenodd" d="M609.768 122.595C620.636 114.23 627.64 101.092 627.64 86.3172C627.64 71.5428 620.636 58.404 609.768 50.0396C598.9 58.404 591.897 71.5428 591.897 86.3172C591.897 101.092 598.9 114.23 609.768 122.595Z" fill="#F26520"/>
<g id="Group 301">
<rect id="Rectangle 344" x="80.4209" y="156.195" width="97.9347" height="69.3406" rx="6.07624" fill="url(#paint1_linear_203_37)" stroke="#211F21" stroke-width="2.14455"/>
<path id="Vector 9" d="M80.7783 178.713H110.087" stroke="#211F21" stroke-width="2" stroke-linecap="round"/>
<path id="Vector 10" d="M80.7783 200.873H109.445" stroke="#211F21" stroke-width="2" stroke-linecap="round"/>
<path id="Vector 11" d="M149.404 200.873H177.998" stroke="#211F21" stroke-width="2" stroke-linecap="round"/>
<path id="Vector 12" d="M148.974 179.428H177.998" stroke="#211F21" stroke-width="2" stroke-linecap="round"/>
<circle id="Ellipse 12" cx="129.388" cy="166.561" r="2.14455" fill="#211F21"/>
<g id="Vector 13">
<path d="M231.053 205.824C236.325 192.59 236.926 185.119 231.053 171.645C230.43 170.215 231.053 169.024 231.768 168.786C232.483 168.547 233.589 168.786 234.27 170.215C241.188 184.73 240.767 192.87 234.628 207.387C233.913 208.817 232.575 208.998 231.768 208.46C230.825 207.831 230.608 206.941 231.053 205.824Z" fill="#FEFBFF"/>
<path d="M223.547 172.717C222.833 173.075 222.375 174.43 223.19 175.934C227.999 185.94 227.802 191.662 223.19 202.026C222.687 203.071 222.998 204.226 223.905 204.528C224.977 204.886 225.913 204.125 226.407 203.098C231.701 192.084 231.841 185.756 226.407 174.147C225.905 173.075 224.62 172.181 223.547 172.717Z" fill="#FEFBFF"/>
<path d="M216.399 177.364C215.327 177.721 215.137 178.908 215.684 180.223C218.53 187.063 218.979 190.898 215.684 197.737C215.042 198.929 214.83 200.193 216.041 200.596C217.253 201 218.126 200.363 218.543 199.524C222.766 191.149 221.82 186.454 218.543 178.079C218.264 177.364 217.471 177.006 216.399 177.364Z" fill="#FEFBFF"/>
<path d="M208.893 180.223C207.821 180.938 207.668 182.022 208.535 183.797C210.344 187.564 210.303 189.68 208.535 193.448C207.714 195.11 207.463 197.022 208.893 197.38C210.323 197.737 210.958 197.229 211.752 195.235C213.578 189.987 213.756 187.02 211.752 181.653C211.291 180.261 210.323 179.508 208.893 180.223Z" fill="#FEFBFF"/>
</g>
<path id="Vector 14" d="M145.115 170.849C142.372 161.508 137.252 156.91 129.031 156.91C119.023 156.91 116.194 164.53 110.087 178.355C113.998 187.507 114.039 192.437 110.087 200.873C116.494 219.254 121.24 224.915 129.388 224.821C140.111 224.821 143.163 215.733 149.047 200.873C145.952 192.497 145.622 187.875 148.5 179.5" stroke="#211F21" stroke-width="2" stroke-linecap="round"/>
</g>
</g>
<defs>
<filter id="filter0_i_203_37" x="0" y="0" width="725" height="461" filterUnits="userSpaceOnUse" color-interpolation-filters="sRGB">
<feFlood flood-opacity="0" result="BackgroundImageFix"/>
<feBlend mode="normal" in="SourceGraphic" in2="BackgroundImageFix" result="shape"/>
<feColorMatrix in="SourceAlpha" type="matrix" values="0 0 0 0 0 0 0 0 0 0 0 0 0 0 0 0 0 0 127 0" result="hardAlpha"/>
<feOffset dx="3" dy="3"/>
<feGaussianBlur stdDeviation="3"/>
<feComposite in2="hardAlpha" operator="arithmetic" k2="-1" k3="1"/>
<feColorMatrix type="matrix" values="0 0 0 0 1 0 0 0 0 1 0 0 0 0 1 0 0 0 0.25 0"/>
<feBlend mode="normal" in2="shape" result="effect1_innerShadow_203_37"/>
</filter>
<linearGradient id="paint0_linear_203_37" x1="610.09" y1="61.83" x2="354.096" y2="526.995" gradientUnits="userSpaceOnUse">
<stop stop-color="#A950C4"/>
<stop offset="1" stop-color="#82269E"/>
</linearGradient>
<linearGradient id="paint1_linear_203_37" x1="171" y1="165" x2="87" y2="221" gradientUnits="userSpaceOnUse">
<stop stop-color="#F4F4F4"/>
<stop offset="1" stop-color="#D6D6D6"/>
</linearGradient>
<clipPath id="clip0_203_37">
<rect width="722" height="458" fill="white"/>
</clipPath>
</defs>
</svg>
